<?xml version="1.0" encoding="UTF-8" standalone="no"?>
<!-- Created with Inkscape (http://www.inkscape.org/) -->

<svg
   width="70.531998mm"
   height="9.6120005mm"
   viewBox="0 0 70.531998 9.6120005"
   version="1.1"
   id="svg5"
   inkscape:version="1.1.1 (26b7af14f2, 2022-01-19)"
   sodipodi:docname="Logo.svg"
   xmlns:inkscape="http://www.inkscape.org/namespaces/inkscape"
   xmlns:sodipodi="http://sodipodi.sourceforge.net/DTD/sodipodi-0.dtd"
   xmlns="http://www.w3.org/2000/svg"
   xmlns:svg="http://www.w3.org/2000/svg">
  <sodipodi:namedview
     id="namedview7"
     pagecolor="#505050"
     bordercolor="#eeeeee"
     borderopacity="1"
     inkscape:pageshadow="0"
     inkscape:pageopacity="0"
     inkscape:pagecheckerboard="0"
     inkscape:document-units="mm"
     showgrid="false"
     width="70.532mm"
     inkscape:zoom="2.0863221"
     inkscape:cx="125.57984"
     inkscape:cy="244.44931"
     inkscape:window-width="1920"
     inkscape:window-height="1018"
     inkscape:window-x="0"
     inkscape:window-y="30"
     inkscape:window-maximized="1"
     inkscape:current-layer="layer1" />
  <defs
     id="defs2">
    <rect
       x="67.629692"
       y="346.94348"
       width="603.7691"
       height="129.71065"
       id="rect7976" />
  </defs>
  <g
     inkscape:label="Camada 1"
     inkscape:groupmode="layer"
     id="layer1">
    <text
       xml:space="preserve"
       transform="scale(0.26458333)"
       id="text7974"
       style="font-size:40px;line-height:1.25;font-family:Lexend;-inkscape-font-specification:Lexend;white-space:pre;shape-inside:url(#rect7976)" />
    <g
       aria-label="SERIES FLIX"
       id="text25011"
       style="font-weight:bold;font-size:10.5833px;line-height:1.25;font-family:Lexend;-inkscape-font-specification:'Lexend Bold';text-align:center;text-anchor:middle;stroke-width:0.264583"
       transform="translate(-62.800152,-36.566106)">
      <path
         d="M 66.126458,45.982525 Q 65.399784,46.054687 64.793287,45.94475 64.196275,45.823235 63.711,45.541729 63.224679,45.249692 62.821637,44.832396 L 63.78402,43.49249 q 0.596645,0.653319 1.147274,0.843252 0.561161,0.188887 1.129862,0.132412 0.28435,-0.02824 0.508722,-0.124966 0.224373,-0.09673 0.337155,-0.246188 0.111736,-0.159991 0.09082,-0.370621 -0.01569,-0.157973 -0.112489,-0.275984 -0.08627,-0.119057 -0.232592,-0.200245 -0.146322,-0.08119 -0.34321,-0.136083 -0.197934,-0.06543 -0.413793,-0.09717 -0.216905,-0.04227 -0.44225,-0.06244 -0.624422,-0.07625 -1.097148,-0.231379 -0.472725,-0.155128 -0.806376,-0.409149 -0.324165,-0.265599 -0.50821,-0.61956 -0.185091,-0.364492 -0.231108,-0.827878 -0.04915,-0.494981 0.13122,-0.927671 0.18986,-0.444269 0.539711,-0.776801 0.359336,-0.344109 0.849161,-0.552281 0.488778,-0.218704 1.036416,-0.273087 0.726674,-0.07216 1.258405,0.03456 0.541216,0.09515 0.938056,0.342896 0.407372,0.246701 0.710401,0.620752 l -1.000179,1.173493 q -0.248353,-0.251856 -0.52942,-0.404746 -0.270535,-0.153935 -0.574829,-0.219436 -0.293763,-0.06655 -0.599177,-0.03622 -0.315944,0.03137 -0.539271,0.138635 -0.21384,0.09568 -0.325577,0.255674 -0.112782,0.149459 -0.09291,0.349558 0.01778,0.179035 0.135644,0.294955 0.117865,0.115919 0.307359,0.203455 0.188448,0.077 0.427461,0.127717 0.237968,0.04018 0.494908,0.05721 0.590736,0.05832 1.072947,0.201876 0.492743,0.142504 0.856942,0.382857 0.374731,0.239306 0.591417,0.600661 0.226171,0.349778 0.275325,0.844758 0.07634,0.7688 -0.249451,1.343556 -0.316311,0.563179 -0.941027,0.912371 -0.61523,0.337615 -1.457749,0.421281 z"
         id="path33956"
         style="fill:#ff0000;fill-opacity:1" />
      <path
         d="m 70.357942,45.471089 -0.606968,-7.383403 5.147286,-0.423143 0.12573,1.529419 -3.406914,0.280072 0.35551,4.324565 3.51239,-0.288743 0.12573,1.529419 z m 0.59496,-3.096563 -0.119659,-1.455585 3.828822,-0.314756 0.119659,1.455585 z"
         id="path33958"
         style="fill:#ff0000;fill-opacity:1" />
      <path
         d="m 77.164479,44.924737 -0.466204,-7.393627 3.327132,-0.209791 q 0.707675,-0.04462 1.297355,0.22572 0.600242,0.269678 0.96164,0.78771 0.360732,0.50747 0.403357,1.183459 0.04396,0.697113 -0.248178,1.277562 -0.292799,0.569887 -0.843185,0.922721 -0.550385,0.352834 -1.268623,0.398122 l -1.616035,0.101899 0.163837,2.598332 z m 4.098181,-0.258411 -2.090551,-3.219145 1.821194,-0.379943 2.318448,3.469883 z M 78.625157,40.84541 80.082758,40.7535 q 0.27462,-0.01732 0.467978,-0.146155 0.203255,-0.140068 0.294892,-0.368537 0.102199,-0.229135 0.08422,-0.514318 -0.01798,-0.285182 -0.15805,-0.488437 -0.140734,-0.213817 -0.390994,-0.314684 -0.239697,-0.101533 -0.577691,-0.08022 l -1.299166,0.08192 z"
         id="path33960"
         style="fill:#ff0000;fill-opacity:1" />
      <path
         d="m 84.435099,44.487516 -0.065,-1.512015 1.247677,-0.05364 -0.188182,-4.377443 -1.247677,0.05364 -0.065,-1.512016 4.303428,-0.184999 0.065,1.512015 -1.258251,0.05409 0.188181,4.377443 1.258251,-0.05409 0.065,1.512015 z"
         id="path33962"
         style="fill:#ff0000;fill-opacity:1" />
      <path
         d="m 90.452917,44.241335 -0.152285,-7.406745 5.163559,-0.106164 0.03154,1.534254 -3.417684,0.07027 0.0892,4.338236 3.523494,-0.07244 0.03154,1.534254 z m 0.784048,-3.05417 -0.03002,-1.460186 3.840926,-0.07897 0.03002,1.460187 z"
         id="path33964"
         style="fill:#ff0000;fill-opacity:1" />
      <path
         d="m 99.733878,44.249475 q -0.730228,-0.0053 -1.321641,-0.178981 -0.580754,-0.184158 -1.03343,-0.515552 -0.452598,-0.341977 -0.8091,-0.799672 l 1.099085,-1.23026 q 0.523977,0.712924 1.051352,0.960194 0.537958,0.247348 1.109441,0.251517 0.285745,0.0021 0.519105,-0.0703 0.23337,-0.07238 0.36137,-0.209035 0.12808,-0.147235 0.12962,-0.358896 0.001,-0.158745 -0.0826,-0.286359 -0.0731,-0.127537 -0.21004,-0.223788 -0.13688,-0.09625 -0.32683,-0.171722 -0.18988,-0.08605 -0.401155,-0.140513 -0.211197,-0.06504 -0.433131,-0.108997 -0.612811,-0.142058 -1.066414,-0.346455 -0.453603,-0.204398 -0.758425,-0.492379 -0.294162,-0.298487 -0.439622,-0.669974 -0.145382,-0.382069 -0.141985,-0.847722 0.0036,-0.497402 0.228885,-0.908518 0.235915,-0.421622 0.619066,-0.715166 0.393811,-0.304051 0.902954,-0.459089 0.50922,-0.165622 1.059537,-0.161607 0.73023,0.0053 1.24764,0.167858 0.52807,0.152023 0.89639,0.440467 0.3789,0.288521 0.64054,0.692607 l -1.11901,1.060776 q -0.22024,-0.27678 -0.4835,-0.458622 -0.25268,-0.181764 -0.54831,-0.279174 -0.28505,-0.09733 -0.591954,-0.09957 -0.317491,-0.0023 -0.550935,0.08065 -0.222784,0.07246 -0.350861,0.219695 -0.128,0.136652 -0.129468,0.33773 -0.0013,0.179911 0.103591,0.307679 0.104904,0.127769 0.284043,0.234912 0.179216,0.09656 0.411502,0.17234 0.232363,0.0652 0.486042,0.109382 0.58122,0.12066 1.04548,0.314552 0.47485,0.193969 0.8115,0.471599 0.34723,0.277707 0.52436,0.660008 0.18779,0.371796 0.18416,0.869198 -0.006,0.77256 -0.39056,1.309514 -0.37427,0.526448 -1.0325,0.807402 -0.64757,0.270448 -1.494212,0.26427 z"
         id="path33966"
         style="fill:#ff0000;fill-opacity:1" />
      <path
         d="m 107.37633,44.307179 0.32675,-7.4011 1.79741,0.07935 -0.32675,7.401101 z m 0.96037,-2.796688 0.0663,-1.501366 3.82743,0.168977 -0.0663,1.501366 z m 0.13163,-2.981586 0.07,-1.58595 4.26092,0.188115 -0.07,1.58595 z"
         id="path33968"
         style="fill:#ffffff;fill-opacity:1" />
      <path
         d="m 113.90915,44.616497 0.47355,-7.393159 1.79548,0.115006 -0.37207,5.80891 3.29523,0.211069 -0.10147,1.584249 z"
         id="path33970"
         style="fill:#ffffff;fill-opacity:1" />
      <path
         d="m 120.19647,45.036092 0.12256,-1.508442 1.24472,0.10113 0.35482,-4.367097 -1.24473,-0.101129 0.12255,-1.508441 4.29326,0.348811 -0.12256,1.508441 -1.25527,-0.101987 -0.35481,4.367097 1.25527,0.101986 -0.12255,1.508442 z"
         id="path33972"
         style="fill:#ffffff;fill-opacity:1" />
      <path
         d="m 130.52614,45.962344 -1.95737,-3.5336 -2.52459,-4.355595 2.18004,0.216224 1.9089,3.48625 2.57307,4.402944 z m -5.26581,-0.52228 3.20992,-3.733652 1.36031,0.975103 -2.4955,2.964327 z m 4.9734,-2.963172 -1.35292,-0.942464 2.37652,-2.944222 2.07473,0.205778 z"
         id="path33974"
         style="fill:#ffffff;fill-opacity:1" />
    </g>
  </g>
</svg>
