<?xml version="1.0" encoding="UTF-8" standalone="no"?>
<!-- Created with Inkscape (http://www.inkscape.org/) -->

<svg
   width="113.756mm"
   height="113.756mm"
   viewBox="0 0 113.756 113.756"
   version="1.1"
   id="svg5"
   inkscape:version="1.1.1 (eb90963e84, 2021-10-02)"
   sodipodi:docname="go-back.svg"
   xmlns:inkscape="http://www.inkscape.org/namespaces/inkscape"
   xmlns:sodipodi="http://sodipodi.sourceforge.net/DTD/sodipodi-0.dtd"
   xmlns="http://www.w3.org/2000/svg"
   xmlns:svg="http://www.w3.org/2000/svg">
  <sodipodi:namedview
     id="namedview7"
     pagecolor="#505050"
     bordercolor="#eeeeee"
     borderopacity="1"
     inkscape:pageshadow="0"
     inkscape:pageopacity="0"
     inkscape:pagecheckerboard="0"
     inkscape:document-units="mm"
     showgrid="false"
     inkscape:zoom="0.52158054"
     inkscape:cx="-141.87646"
     inkscape:cy="115.03497"
     inkscape:window-width="1920"
     inkscape:window-height="1018"
     inkscape:window-x="0"
     inkscape:window-y="30"
     inkscape:window-maximized="1"
     inkscape:current-layer="layer1"
     width="111.541mm"
     height="114.541mm" />
  <defs
     id="defs2" />
  <g
     inkscape:label="Camada 1"
     inkscape:groupmode="layer"
     id="layer1">
    <g
       id="g1801"
       transform="translate(-0.392501)">
      <path
         style="fill:none;stroke:#ffffff;stroke-width:10;stroke-linecap:round;stroke-linejoin:miter;stroke-miterlimit:4;stroke-dasharray:none;stroke-opacity:1"
         d="m 33.988464,22.652069 c 0,0 7.316319,-3.603334 11.230094,-4.652035 3.913947,-1.048744 8.000062,-1.586381 12.052068,-1.586384 4.051845,-9e-6 8.137791,0.537588 12.051537,1.586285 3.913776,1.048694 7.721091,2.626078 11.230065,4.652035 3.509066,2.026021 6.778739,4.534817 9.643934,7.399956 2.865144,2.865083 5.374088,6.134596 7.400041,9.643632 2.025902,3.508962 3.602877,7.316461 4.651557,11.230195 1.04869,3.913744 1.58674,7.999588 1.58674,12.051396 0,4.051882 -0.53805,8.137826 -1.58678,12.051641 -1.04875,3.913877 -2.625975,7.721389 -4.651907,11.230504 -2.025883,3.508986 -4.534417,6.778705 -7.399481,9.643781 -2.865064,2.865075 -6.134808,5.373605 -9.643803,7.399515 -3.509145,2.02599 -7.31665,3.60345 -11.230586,4.65217 -3.913785,1.04868 -7.999741,1.58624 -12.051587,1.58623 -4.051816,-10e-6 -8.137751,-0.53763 -12.051537,-1.58627 -3.913915,-1.04868 -7.721482,-2.62586 -11.230545,-4.65189 -3.508966,-2.02599 -6.778381,-4.534978 -9.643445,-7.400092 C 21.479725,93.0376 18.970742,89.76813 16.944799,86.259096 14.918887,82.750133 13.341925,78.942647 12.293233,75.028907 11.244551,71.115166 10.706501,62.977509 10.706501,62.977509"
         id="path6943"
         sodipodi:nodetypes="caaaaaaaaaaaaaaaaaaac" />
      <g
         id="g8984"
         transform="matrix(-0.92299344,-0.3848188,0.38481922,-0.92299011,-138.71705,-80.595346)"
         inkscape:transform-center-y="-4.9185509"
         inkscape:transform-center-x="-8.4362879"
         style="stroke-width:10;stroke-miterlimit:4;stroke-dasharray:none">
        <path
           style="fill:none;stroke:#ffffff;stroke-width:10;stroke-linecap:round;stroke-linejoin:miter;stroke-miterlimit:4;stroke-dasharray:none;stroke-opacity:1"
           d="m -199.13717,-28.836374 v 18.274813"
           id="path8880" />
        <path
           style="fill:none;stroke:#ffffff;stroke-width:10;stroke-linecap:round;stroke-linejoin:miter;stroke-miterlimit:4;stroke-dasharray:none;stroke-opacity:1"
           d="m -199.13717,-28.836374 h -18.27482"
           id="path8980" />
      </g>
      <text
         xml:space="preserve"
         style="font-style:normal;font-variant:normal;font-weight:bold;font-stretch:normal;font-size:35.6779px;line-height:1.25;font-family:'Open Sans';-inkscape-font-specification:'Open Sans Bold';fill:#ffffff;fill-opacity:1;stroke:#ffffff;stroke-width:0;stroke-miterlimit:4;stroke-dasharray:none;stroke-opacity:1"
         x="36.452492"
         y="75.537849"
         id="text13606"><tspan
           sodipodi:role="line"
           id="tspan13604"
           style="font-style:normal;font-variant:normal;font-weight:bold;font-stretch:normal;font-family:'Open Sans';-inkscape-font-specification:'Open Sans Bold';stroke:#ffffff;stroke-width:0;stroke-miterlimit:4;stroke-dasharray:none;stroke-opacity:1"
           x="36.452492"
           y="75.537849">15</tspan></text>
    </g>
  </g>
</svg>
