<?xml version="1.0" encoding="UTF-8" standalone="no"?>
<!-- Created with Inkscape (http://www.inkscape.org/) -->

<svg
   width="128mm"
   height="128mm"
   viewBox="0 0 128 128"
   version="1.1"
   id="svg5"
   inkscape:version="1.1.1 (eb90963e84, 2021-10-02)"
   sodipodi:docname="volume_3.svg"
   xmlns:inkscape="http://www.inkscape.org/namespaces/inkscape"
   xmlns:sodipodi="http://sodipodi.sourceforge.net/DTD/sodipodi-0.dtd"
   xmlns="http://www.w3.org/2000/svg"
   xmlns:svg="http://www.w3.org/2000/svg">
  <sodipodi:namedview
     id="namedview7"
     pagecolor="#505050"
     bordercolor="#eeeeee"
     borderopacity="1"
     inkscape:pageshadow="0"
     inkscape:pageopacity="0"
     inkscape:pagecheckerboard="0"
     inkscape:document-units="mm"
     showgrid="false"
     inkscape:zoom="0.5"
     inkscape:cx="64"
     inkscape:cy="426"
     inkscape:window-width="1920"
     inkscape:window-height="1018"
     inkscape:window-x="0"
     inkscape:window-y="30"
     inkscape:window-maximized="1"
     inkscape:current-layer="layer1"
     width="128mm" />
  <defs
     id="defs2" />
  <g
     inkscape:label="Camada 1"
     inkscape:groupmode="layer"
     id="layer1">
    <g
       id="g2123"
       transform="matrix(1.3319954,0,0,1.3319791,-1.9075334,10.440305)">
      <g
         id="g2115">
        <path
           id="path36767"
           style="fill:#ffffff;fill-opacity:0;stroke:#fffbff;stroke-width:6;stroke-linecap:round;stroke-linejoin:round;stroke-miterlimit:4;stroke-dasharray:none;stroke-opacity:1"
           d="m 79.789257,40.391588 c 0,18.4415 -13.082285,23.3817 -13.082285,23.3817 6.611421,-3.44432 13.082285,-10.18427 13.082285,-23.3817 0,-13.67645 -6.948875,-20.41795 -13.802183,-23.74342 0,0 13.802183,5.21994 13.802183,23.74342 z"
           sodipodi:nodetypes="ccscc" />
        <path
           id="path36769"
           style="fill:#ffffff;fill-opacity:0;stroke:#fffbff;stroke-width:6;stroke-linecap:round;stroke-linejoin:round;stroke-miterlimit:4;stroke-dasharray:none;stroke-opacity:1"
           d="m 94.528619,40.472678 c 0,26.71909 -18.954351,33.87672 -18.954351,33.87672 9.578999,-4.99032 18.954351,-14.75554 18.954351,-33.87672 0,-19.81522 -10.067921,-29.58268 -19.997381,-34.400799 0,0 19.997381,7.562929 19.997381,34.400799 z"
           sodipodi:nodetypes="ccscc" />
      </g>
      <g
         id="g2111">
        <path
           id="path36763"
           style="fill:#fffbff;stroke-width:30.5886;stroke-linecap:round;stroke-linejoin:round;stroke-miterlimit:22;paint-order:fill markers stroke"
           d="M 2.5201474,40.210738 56.647422,2.92324 v 74.575468 z"
           sodipodi:nodetypes="cccc" />
        <rect
           style="fill:#fffbff;stroke-width:18.3285;stroke-linecap:round;stroke-linejoin:round;stroke-miterlimit:22;paint-order:fill markers stroke"
           id="rect38346"
           width="48.496758"
           height="37.287498"
           x="1.4320871"
           y="21.567225"
           ry="4.7444715" />
      </g>
    </g>
    <path
       id="path36765"
       style="fill:none;fill-opacity:1;stroke:none;stroke-width:0.222099;stroke-linecap:square;stroke-linejoin:miter;stroke-miterlimit:4;stroke-dasharray:none;stroke-opacity:1;paint-order:fill markers stroke"
       d="m 63.611875,16.061118 v 3.95967 a 24.529447,24.529447 0 0 1 0.371865,0.25938 24.529447,24.529447 0 0 1 0.534076,0.39482 24.529447,24.529447 0 0 1 0.523365,0.40936 24.529447,24.529447 0 0 1 0.512269,0.42313 24.529447,24.529447 0 0 1 0.500411,0.4369 24.529447,24.529447 0 0 1 0.48855,0.45029 24.529447,24.529447 0 0 1 0.475925,0.4633 24.529447,24.529447 0 0 1 0.463299,0.47593 24.529447,24.529447 0 0 1 0.450293,0.48855 24.529447,24.529447 0 0 1 0.436902,0.50041 24.529447,24.529447 0 0 1 0.42313,0.51227 24.529447,24.529447 0 0 1 0.408974,0.52298 24.529447,24.529447 0 0 1 0.394818,0.53446 24.529447,24.529447 0 0 1 0.380282,0.54478 24.529447,24.529447 0 0 1 0.365359,0.55474 24.529447,24.529447 0 0 1 0.350058,0.56468 24.529447,24.529447 0 0 1 0.334755,0.57349 24.529447,24.529447 0 0 1 0.319068,0.58266 24.529447,24.529447 0 0 1 0.303383,0.59108 24.529447,24.529447 0 0 1 0.286934,0.59911 24.529447,24.529447 0 0 1 0.270863,0.60677 24.529447,24.529447 0 0 1 0.254414,0.61365 24.529447,24.529447 0 0 1 0.237196,0.62054 24.529447,24.529447 0 0 1 0.220748,0.62666 24.529447,24.529447 0 0 1 0.20353,0.63202 24.529447,24.529447 0 0 1 0.186314,0.63775 24.529447,24.529447 0 0 1 0.169099,0.64235 24.529447,24.529447 0 0 1 0.1515,0.64693 24.529447,24.529447 0 0 1 0.134285,0.65077 24.529447,24.529447 0 0 1 0.116303,0.65382 24.529447,24.529447 0 0 1 0.09832,0.65688 24.529447,24.529447 0 0 1 0.08072,0.65957 24.529447,24.529447 0 0 1 0.06312,0.66147 24.529447,24.529447 0 0 1 0.04476,0.66262 24.529447,24.529447 0 0 1 0.02716,0.66377 24.529447,24.529447 0 0 1 0.0088,0.66415 24.529447,24.529447 0 0 1 -0.07537,1.92475 24.529447,24.529447 0 0 1 -0.226485,1.9125 24.529447,24.529447 0 0 1 -0.37569,1.88916 24.529447,24.529447 0 0 1 -0.522982,1.85358 24.529447,24.529447 0 0 1 -0.666449,1.80691 24.529447,24.529447 0 0 1 -0.80647,1.74914 24.529447,24.529447 0 0 1 -0.941138,1.68065 24.529447,24.529447 0 0 1 -1.070066,1.60147 24.529447,24.529447 0 0 1 -1.19249,1.51232 24.529447,24.529447 0 0 1 -1.307264,1.41439 24.529447,24.529447 0 0 1 -1.414384,1.30764 24.529447,24.529447 0 0 1 -1.512326,1.19211 24.529447,24.529447 0 0 1 -0.479751,0.33437 v 3.96311 l 0.0092,0.0161 a 27.895602,27.895602 0 0 0 13.947968,-24.1582 27.895602,27.895602 0 0 0 -13.957151,-24.14171 z" />
    <path
       id="path38350"
       style="fill:none;fill-opacity:1;stroke:none;stroke-width:0.222099;stroke-linecap:square;stroke-linejoin:miter;stroke-miterlimit:4;stroke-dasharray:none;stroke-opacity:1;paint-order:fill markers stroke"
       d="m 63.611875,16.061118 v 3.95967 a 24.529447,24.529447 0 0 1 0.371865,0.25938 24.529447,24.529447 0 0 1 0.534076,0.39482 24.529447,24.529447 0 0 1 0.523365,0.40936 24.529447,24.529447 0 0 1 0.512269,0.42313 24.529447,24.529447 0 0 1 0.500411,0.4369 24.529447,24.529447 0 0 1 0.48855,0.45029 24.529447,24.529447 0 0 1 0.475925,0.4633 24.529447,24.529447 0 0 1 0.463299,0.47593 24.529447,24.529447 0 0 1 0.450293,0.48855 24.529447,24.529447 0 0 1 0.436902,0.50041 24.529447,24.529447 0 0 1 0.42313,0.51227 24.529447,24.529447 0 0 1 0.408974,0.52298 24.529447,24.529447 0 0 1 0.394818,0.53446 24.529447,24.529447 0 0 1 0.380282,0.54478 24.529447,24.529447 0 0 1 0.365359,0.55474 24.529447,24.529447 0 0 1 0.350058,0.56468 24.529447,24.529447 0 0 1 0.334755,0.57349 24.529447,24.529447 0 0 1 0.319068,0.58266 24.529447,24.529447 0 0 1 0.303383,0.59108 24.529447,24.529447 0 0 1 0.286934,0.59911 24.529447,24.529447 0 0 1 0.270863,0.60677 24.529447,24.529447 0 0 1 0.254414,0.61365 24.529447,24.529447 0 0 1 0.237196,0.62054 24.529447,24.529447 0 0 1 0.220748,0.62666 24.529447,24.529447 0 0 1 0.20353,0.63202 24.529447,24.529447 0 0 1 0.186314,0.63775 24.529447,24.529447 0 0 1 0.169099,0.64235 24.529447,24.529447 0 0 1 0.1515,0.64693 24.529447,24.529447 0 0 1 0.134285,0.65077 24.529447,24.529447 0 0 1 0.116303,0.65382 24.529447,24.529447 0 0 1 0.09832,0.65688 24.529447,24.529447 0 0 1 0.08072,0.65957 24.529447,24.529447 0 0 1 0.06312,0.66147 24.529447,24.529447 0 0 1 0.04476,0.66262 24.529447,24.529447 0 0 1 0.02716,0.66377 24.529447,24.529447 0 0 1 0.0088,0.66415 24.529447,24.529447 0 0 1 -0.07537,1.92475 24.529447,24.529447 0 0 1 -0.226485,1.9125 24.529447,24.529447 0 0 1 -0.37569,1.88916 24.529447,24.529447 0 0 1 -0.522982,1.85358 24.529447,24.529447 0 0 1 -0.666449,1.80691 24.529447,24.529447 0 0 1 -0.80647,1.74914 24.529447,24.529447 0 0 1 -0.941138,1.68065 24.529447,24.529447 0 0 1 -1.070066,1.60147 24.529447,24.529447 0 0 1 -1.19249,1.51232 24.529447,24.529447 0 0 1 -1.307264,1.41439 24.529447,24.529447 0 0 1 -1.414384,1.30764 24.529447,24.529447 0 0 1 -1.512326,1.19211 24.529447,24.529447 0 0 1 -0.479751,0.33437 v 3.96311 l 0.0092,0.0161 a 27.895602,27.895602 0 0 0 13.947968,-24.1582 27.895602,27.895602 0 0 0 -13.957151,-24.14171 z" />
  </g>
  <g
     inkscape:groupmode="layer"
     id="layer2"
     inkscape:label="Camada 2" />
</svg>
